<?xml version="1.0" standalone="no"?>
<!DOCTYPE svg PUBLIC "-//W3C//DTD SVG 20010904//EN"
 "http://www.w3.org/TR/2001/REC-SVG-20010904/DTD/svg10.dtd">
<svg version="1.0" xmlns="http://www.w3.org/2000/svg"
 width="1518.000000pt" height="1144.000000pt" viewBox="0 0 1518.000000 1144.000000"
 preserveAspectRatio="xMidYMid meet">

<g transform="translate(0.000000,1144.000000) scale(0.100000,-0.100000)"
fill="#000000" stroke="none">
<path d="M1315 10259 c-191 -11 -309 -30 -427 -69 -197 -66 -446 -218 -584
-356 -143 -143 -184 -267 -163 -490 21 -230 143 -573 206 -582 26 -4 30 -24 8
-42 -21 -17 -50 9 -66 59 -29 93 -88 158 -134 147 -81 -20 -68 -260 19 -363
94 -108 250 -112 365 -8 55 50 67 95 46 178 -20 78 -52 132 -108 184 -43 40
-120 74 -134 59 -4 -4 -1 -28 7 -54 7 -26 15 -67 16 -92 2 -25 1 -36 -2 -25
-3 11 -23 59 -45 106 -63 139 -81 223 -83 379 -1 158 13 222 76 350 33 67 58
102 122 165 117 116 241 177 480 236 212 51 368 70 633 76 322 7 515 -17 643
-82 106 -54 344 -277 433 -406 37 -55 130 -250 226 -479 29 -69 73 -168 97
-221 45 -98 51 -129 34 -190 -12 -41 -45 -75 -115 -114 -27 -15 -70 -47 -95
-70 -31 -29 -74 -52 -141 -78 -64 -25 -112 -52 -148 -82 -28 -24 -68 -49 -89
-55 -61 -17 -258 -13 -294 6 -65 34 -178 -10 -195 -74 -5 -23 4 -84 22 -148 6
-18 0 -21 -59 -32 -68 -13 -211 -70 -285 -114 -22 -13 -78 -58 -123 -100 -69
-62 -91 -91 -130 -164 -104 -199 -138 -355 -137 -618 0 -169 10 -276 22 -246
3 8 8 80 11 160 10 300 92 473 303 641 77 61 218 149 279 175 37 15 36 15 -33
-63 -108 -121 -171 -226 -187 -310 -6 -38 6 -44 22 -10 l11 22 7 -23 c5 -19
10 -14 35 39 35 74 113 153 194 195 105 55 112 51 38 -23 -147 -146 -247 -441
-248 -728 0 -140 0 -140 39 -235 55 -137 131 -281 171 -326 l34 -39 -39 113
c-100 286 -106 518 -18 730 71 172 232 353 368 415 l44 20 51 -55 c79 -84 176
-219 224 -308 23 -44 39 -80 36 -80 -4 0 -32 8 -63 17 -39 12 -94 17 -172 17
-127 1 -197 -16 -250 -61 -38 -31 -38 -17 -2 33 62 84 139 150 245 208 48 27
67 43 65 54 -5 22 -33 17 -80 -14 -21 -13 -42 -24 -48 -24 -5 0 -10 -6 -10
-14 0 -8 -21 -24 -47 -37 -65 -31 -164 -131 -195 -199 -15 -31 -34 -93 -43
-139 -17 -80 -17 -88 0 -162 10 -43 22 -76 27 -73 4 3 8 44 8 92 0 188 93 279
303 298 73 6 224 -9 240 -25 5 -5 -14 -16 -45 -26 -182 -59 -310 -186 -352
-349 -34 -131 -30 -322 11 -468 28 -103 51 -56 27 56 -28 132 14 271 112 371
54 56 104 87 189 117 99 36 150 42 170 22 14 -15 75 -126 75 -139 0 -3 -15 -5
-34 -5 -49 0 -79 -13 -127 -57 -64 -58 -89 -120 -89 -224 0 -47 -7 -108 -15
-135 -17 -56 -20 -98 -6 -89 5 3 25 38 44 78 38 78 81 125 167 181 58 38 118
48 139 22 6 -7 19 -38 29 -69 l19 -55 -44 -17 c-52 -20 -96 -55 -134 -109 -29
-38 -29 -41 -29 -178 0 -116 2 -138 15 -138 9 0 15 9 15 23 0 38 45 120 84
154 40 36 59 43 125 46 45 2 45 2 58 -42 23 -78 36 -244 24 -318 -9 -61 -14
-71 -47 -98 -20 -16 -64 -58 -97 -93 -58 -60 -61 -62 -79 -45 -11 10 -43 29
-71 43 -63 31 -99 93 -105 182 -4 53 -2 60 27 93 39 44 39 52 1 52 -16 0 -30
-4 -30 -8 0 -4 -27 -34 -59 -66 -81 -80 -96 -141 -67 -265 l14 -56 -77 -8
c-153 -16 -193 -6 -217 51 -14 35 -17 131 -5 175 6 22 9 19 34 -32 35 -71 111
-143 167 -158 57 -15 76 2 31 27 -72 39 -112 75 -141 125 -52 92 -52 156 0
183 32 17 40 35 15 35 -19 0 -19 9 1 31 9 10 14 23 12 30 -6 19 -62 -35 -112
-108 -49 -73 -66 -132 -66 -229 0 -30 -3 -54 -6 -54 -4 0 -29 17 -56 38 -99
74 -159 204 -144 311 10 70 41 121 106 176 68 57 58 69 -25 31 -147 -67 -247
-240 -232 -401 3 -33 9 -68 12 -78 6 -14 1 -17 -31 -17 -34 0 -36 1 -19 14 17
12 14 17 -44 80 -62 66 -98 132 -121 216 -17 61 -14 187 5 239 20 58 71 123
118 152 70 44 34 54 -52 14 -109 -51 -218 -201 -251 -344 -16 -70 -7 -199 19
-273 23 -67 18 -70 -52 -30 -50 28 -93 93 -168 252 -71 148 -74 297 -8 427 40
78 143 192 239 263 39 29 70 54 70 56 0 9 -169 -81 -245 -130 -106 -69 -166
-132 -209 -219 -57 -117 -79 -213 -74 -329 3 -78 1 -98 -10 -98 -92 0 -182
271 -182 545 0 175 32 330 101 483 41 91 132 227 192 284 l52 50 -40 -20 c-53
-26 -212 -184 -284 -282 -224 -302 -287 -684 -181 -1099 l20 -79 -35 -52 c-46
-68 -52 -108 -28 -174 20 -54 107 -180 133 -192 8 -4 87 -9 175 -11 110 -3
172 -9 199 -19 93 -36 283 -182 521 -400 313 -287 456 -371 669 -393 122 -12
181 -38 344 -153 176 -124 302 -181 599 -273 231 -72 582 -155 657 -155 5 0
-1 -12 -15 -26 -13 -15 -98 -62 -188 -106 -164 -79 -206 -106 -356 -233 -107
-90 -205 -146 -358 -205 -339 -132 -639 -199 -1017 -224 -118 -8 -206 -18
-213 -25 -8 -8 93 -11 393 -10 297 0 455 -4 590 -16 371 -32 687 -30 920 6 74
11 347 139 404 189 18 17 37 30 41 30 4 0 23 -13 42 -30 21 -19 45 -30 64 -30
37 0 56 -10 140 -71 73 -54 162 -99 197 -99 18 0 22 -6 22 -30 0 -52 67 -291
115 -410 105 -262 225 -450 395 -620 105 -106 280 -240 313 -240 6 0 -26 35
-73 77 -149 136 -157 145 -174 203 -47 164 -47 532 0 765 31 155 117 368 221
550 25 44 108 182 184 307 147 241 236 408 264 498 10 30 26 71 36 92 22 43
50 55 229 97 172 41 224 62 304 126 37 31 84 62 102 70 26 11 40 26 55 60 l20
45 32 -24 c43 -33 169 -179 241 -279 32 -45 78 -125 103 -177 47 -98 70 -133
83 -125 13 8 1 43 -63 180 -63 135 -177 315 -284 446 l-62 77 32 13 c130 51
195 97 227 159 41 79 77 88 237 61 351 -60 545 -65 807 -21 272 45 394 38 466
-30 30 -28 32 -35 28 -75 -7 -55 -44 -107 -106 -146 -65 -41 -96 -44 -281 -26
-193 19 -158 23 -556 -51 -31 -5 -16 -8 65 -10 71 -2 132 2 187 14 83 17 97
17 410 -2 97 -6 105 -5 157 20 64 31 149 119 166 172 15 46 9 117 -15 169 -48
103 -224 231 -442 322 -93 39 -111 50 -100 61 11 10 24 11 61 2 48 -10 84 -8
161 12 34 9 37 12 20 19 -11 4 -34 8 -52 8 -17 1 -44 6 -60 12 -27 11 -26 11
37 29 112 31 180 55 180 62 0 11 -91 -3 -123 -19 -16 -8 -36 -12 -45 -8 -23 9
200 115 265 125 28 5 69 18 92 29 22 12 47 21 56 21 8 0 15 7 15 15 0 18 -25
19 -68 4 -17 -6 -39 -9 -49 -7 -10 2 23 18 72 37 113 42 293 133 351 177 24
19 48 34 53 34 6 0 13 5 17 11 7 12 -40 7 -91 -8 -18 -5 -18 -4 -6 11 21 26
64 45 170 78 103 32 180 67 199 91 7 8 20 13 30 10 12 -3 21 5 29 28 7 18 11
35 9 37 -3 2 -33 -10 -68 -26 -69 -33 -168 -65 -176 -57 -3 3 -3 6 -1 8 2 2
69 45 148 97 143 93 265 160 350 193 65 24 42 33 -33 13 -36 -10 -71 -16 -77
-14 -29 10 274 142 374 163 43 9 34 29 -10 21 -88 -15 -176 -19 -169 -8 4 7
20 12 35 12 37 0 152 38 173 57 9 8 53 20 98 26 62 8 79 14 78 26 -2 11 18 19
82 32 174 37 286 19 464 -73 133 -70 159 -129 137 -318 -47 -407 -206 -768
-501 -1140 -215 -270 -403 -461 -745 -755 -121 -104 -269 -239 -330 -300 -195
-196 -256 -233 -573 -347 -385 -138 -776 -342 -1207 -631 -128 -86 -178 -128
-340 -287 -105 -102 -221 -206 -260 -231 -38 -26 -117 -77 -175 -114 -121 -78
-270 -218 -330 -311 -77 -117 -102 -230 -76 -335 23 -88 68 -159 149 -235 63
-58 164 -121 176 -109 3 3 -18 29 -46 58 -28 28 -58 66 -67 84 -9 17 -29 41
-46 53 -38 27 -68 84 -81 155 -17 90 19 244 60 260 8 3 44 -9 80 -27 63 -32
68 -33 190 -32 97 0 154 6 247 27 67 14 161 31 210 37 49 7 170 25 269 41 115
19 247 33 365 39 207 10 272 24 364 75 58 32 67 34 146 32 81 -2 90 0 205 48
116 48 123 50 220 50 118 1 170 20 272 103 34 27 78 55 98 62 28 9 37 19 42
41 9 46 45 49 94 9 38 -30 45 -32 99 -28 37 3 66 11 78 21 24 22 38 21 69 -3
65 -51 146 -44 184 16 23 37 30 39 94 23 68 -17 109 -5 158 47 45 48 53 50
137 32 52 -10 60 -9 112 15 42 18 64 36 83 67 26 41 28 42 69 36 73 -11 123 6
182 65 l53 52 39 -11 c62 -19 106 -14 166 17 80 43 122 79 151 133 l26 48 68
0 c82 0 138 18 209 67 45 31 58 48 90 115 l36 78 84 26 c76 23 90 31 160 98
44 42 103 87 138 104 57 29 85 55 160 149 26 31 45 43 95 58 102 30 129 47
224 146 72 75 94 105 109 149 19 55 25 63 162 190 54 51 213 269 276 380 38
65 56 78 132 90 78 12 88 17 172 76 62 45 105 58 218 70 40 4 81 18 133 45 61
32 84 39 131 39 71 0 124 15 174 47 34 23 45 25 100 20 41 -4 99 1 170 14 128
23 149 30 197 70 21 17 69 40 116 54 103 32 137 53 181 115 64 89 101 96 328
55 160 -29 285 -32 371 -10 62 17 137 54 130 65 -2 4 -48 10 -102 13 -200 11
-427 78 -813 240 -124 51 -248 101 -276 111 -28 9 -78 32 -109 52 -40 24 -62
31 -69 24 -17 -17 -30 -12 -86 30 -29 22 -62 40 -72 40 -12 0 -18 7 -18 21 0
16 -4 19 -20 14 -12 -4 -33 3 -57 19 -20 14 -78 39 -128 56 -116 39 -409 183
-805 397 -173 93 -391 209 -483 258 -159 82 -171 91 -221 154 -116 143 -180
270 -267 530 -33 96 -69 192 -81 213 -31 55 -137 120 -252 153 -57 17 -60 17
-175 -9 -212 -47 -302 -33 -438 68 -98 73 -124 83 -246 101 -130 18 -223 53
-387 145 -275 155 -404 209 -546 228 -105 15 -140 5 -241 -70 -170 -125 -266
-185 -726 -452 -430 -249 -593 -328 -772 -375 -276 -73 -501 -47 -778 87 -137
66 -206 105 -532 297 -210 123 -326 181 -508 254 -97 39 -233 106 -355 173
-254 142 -382 204 -471 226 -39 10 -69 21 -66 24 3 2 -46 12 -108 21 -61 9
-202 30 -312 46 -310 47 -410 54 -555 40 -206 -19 -403 12 -568 91 -160 77
-237 182 -462 635 -201 406 -261 494 -421 615 -141 105 -288 164 -489 195
-106 17 -414 18 -685 4z m589 -39 c274 -23 470 -107 649 -279 133 -128 205
-244 347 -563 173 -386 263 -505 463 -609 122 -63 240 -90 442 -97 l170 -7 46
-32 c100 -70 172 -179 363 -561 179 -356 229 -430 539 -798 222 -263 315 -407
397 -616 29 -73 74 -171 100 -218 79 -142 94 -207 65 -277 -18 -43 -213 -304
-350 -468 -55 -66 -158 -179 -230 -250 -196 -196 -343 -309 -665 -510 -69 -43
-150 -97 -180 -120 -116 -90 -230 -122 -399 -111 -307 19 -332 19 -506 -4
-225 -30 -296 -25 -435 28 -58 22 -154 54 -215 72 -299 85 -526 171 -659 247
-44 25 -154 95 -245 156 -296 197 -385 227 -705 236 l-208 6 -40 45 c-79 89
-108 179 -69 214 10 10 22 33 25 51 7 38 51 70 136 100 184 66 257 51 445 -90
153 -115 215 -136 445 -150 156 -10 231 -28 363 -91 65 -32 137 -61 160 -65
27 -6 92 -3 184 8 126 15 153 15 225 3 93 -16 120 -16 178 0 32 9 46 20 70 58
16 26 59 72 97 103 37 30 74 66 80 80 23 44 10 354 -18 464 -6 22 -37 96 -69
165 -33 72 -103 263 -165 450 -148 448 -163 476 -505 927 -245 322 -329 508
-261 576 18 19 31 21 79 19 31 -2 80 -4 109 -5 l52 -2 -27 -28 c-30 -32 -33
-61 -12 -157 11 -51 28 -85 78 -160 42 -61 88 -147 129 -245 106 -248 139
-296 276 -400 119 -91 136 -123 146 -272 4 -65 14 -120 23 -137 8 -16 39 -45
69 -65 46 -31 60 -48 95 -119 53 -104 83 -217 93 -343 l8 -98 101 -208 c114
-234 128 -280 112 -389 -17 -126 -66 -232 -163 -352 -53 -65 -95 -97 -146
-112 -29 -8 -168 16 -316 53 -129 34 -267 57 -421 72 -209 20 -285 40 -473
127 l-156 72 -185 6 -185 5 -155 64 c-198 81 -260 89 -332 42 -41 -26 -48 -35
-48 -62 0 -35 32 -94 56 -103 33 -13 35 7 4 39 -41 42 -38 73 10 98 49 25 118
16 249 -34 252 -96 286 -104 421 -90 111 10 156 -1 340 -88 80 -38 172 -76
205 -85 33 -9 164 -27 290 -41 167 -19 275 -37 395 -66 284 -69 323 -66 424
35 130 128 206 287 213 446 6 115 -3 146 -111 377 -84 180 -87 191 -126 397
-43 233 -75 303 -165 361 -72 46 -90 85 -103 227 -6 59 -18 122 -27 142 -10
21 -48 62 -88 94 -122 99 -196 202 -303 422 -53 107 -117 229 -144 270 -27 41
-54 94 -60 117 -14 46 -7 105 15 127 8 8 56 24 107 36 119 28 142 38 203 89
28 24 95 65 150 93 55 28 125 67 155 88 30 20 73 46 95 58 89 45 114 112 95
250 -13 93 -43 166 -173 411 -58 108 -117 228 -132 266 -31 80 -131 210 -265
346 -136 137 -275 219 -442 259 -297 71 -843 31 -1223 -91 -136 -43 -224 -86
-324 -158 -46 -34 -88 -61 -93 -61 -22 0 20 46 92 100 239 177 516 266 895
289 191 12 414 12 549 1z m-1622 -522 c-23 -43 -52 -122 -72 -193 -17 -66 -34
-122 -37 -125 -13 -11 8 151 26 210 24 76 86 180 107 180 11 0 5 -19 -24 -72z
m1683 -1644 c16 -17 55 -87 55 -101 0 -5 -27 -13 -59 -20 -139 -26 -368 -170
-543 -341 -65 -63 -120 -123 -123 -133 -6 -17 -35 -28 -35 -13 0 3 18 52 40
109 98 248 245 388 504 477 125 43 138 44 161 22z m128 -199 c20 -20 37 -39
37 -44 0 -5 -28 -14 -62 -20 -142 -28 -169 -40 -302 -136 -27 -20 -51 -33 -54
-30 -8 7 63 90 123 142 48 43 184 122 210 122 6 0 27 -15 48 -34z m81 -107
c22 -34 42 -111 30 -115 -32 -11 -150 -98 -212 -157 -176 -167 -281 -422 -269
-648 3 -66 1 -88 -8 -88 -16 0 -25 76 -25 216 0 251 88 515 219 657 63 68 133
117 168 117 12 0 27 9 33 20 14 27 46 25 64 -2z m8996 -84 c47 -2 92 -4 101
-4 9 0 53 -32 98 -71 88 -76 104 -101 171 -269 58 -146 94 -212 145 -270 25
-28 43 -55 40 -60 -6 -10 -61 11 -114 44 -80 51 -143 76 -278 110 -188 47
-224 51 -303 32 -36 -9 -68 -16 -71 -16 -4 0 -12 29 -18 64 -6 36 -29 120 -50
188 -50 158 -57 188 -39 188 7 0 42 14 78 31 74 36 118 49 140 42 8 -2 53 -6
100 -9z m135 -569 c230 -60 488 -182 1235 -585 217 -117 523 -277 680 -355
557 -277 1219 -537 1426 -561 38 -5 54 -11 54 -21 0 -11 -7 -13 -22 -10 -13 3
-79 13 -148 22 -301 39 -711 156 -1085 310 -178 73 -573 265 -780 379 -88 49
-322 182 -520 296 -457 263 -486 279 -625 339 -183 78 -311 114 -522 146 -32
5 -38 10 -38 30 0 19 8 27 33 34 51 16 202 4 312 -24z m-8695 -62 c6 -43 14
-90 17 -105 5 -27 4 -28 -33 -28 -113 0 -238 -64 -353 -178 l-83 -83 7 48 c21
142 113 274 244 351 43 25 155 70 177 71 6 1 17 -33 24 -76z m8307 -82 c26
-89 36 -243 24 -358 -38 -367 -192 -697 -588 -1262 -181 -259 -285 -389 -453
-566 -210 -220 -272 -297 -383 -466 -88 -137 -117 -173 -117 -151 0 5 7 48 15
94 18 104 65 241 111 327 73 133 231 325 323 392 50 37 60 49 61 74 0 24 34
71 166 230 173 209 228 290 319 473 109 218 143 330 175 577 25 190 45 292 70
357 22 58 133 226 188 286 50 54 72 53 89 -7z m-10218 -262 c-7 -63 -10 -166
-6 -264 6 -186 32 -306 92 -424 20 -41 33 -77 28 -81 -19 -18 -164 -63 -174
-53 -15 15 -67 234 -75 316 -14 152 43 449 107 559 18 32 35 56 37 54 2 -2 -2
-51 -9 -107z m9131 107 c0 -2 -13 -6 -29 -8 -17 -2 -28 -1 -25 4 5 8 54 12 54
4z m-7097 -137 c21 -16 57 -96 57 -126 0 -2 -19 -3 -42 -3 -53 0 -152 -46
-192 -89 -54 -56 -72 -30 -41 60 29 85 121 179 176 179 9 0 28 -9 42 -21z
m6708 -56 c-19 -8 -63 -25 -99 -39 -57 -21 -63 -22 -60 -6 2 12 26 23 88 39
99 25 118 27 71 6z m2619 -46 c78 -36 234 -124 595 -337 283 -166 529 -285
750 -361 196 -67 332 -126 354 -152 12 -15 10 -17 -15 -17 -19 -1 16 -18 99
-49 l127 -47 -37 -11 -38 -10 37 -2 c37 -1 57 -14 38 -26 -15 -10 -12 -23 8
-28 20 -6 -196 2 -250 8 -20 3 -39 1 -43 -4 -14 -24 -325 131 -690 344 -445
260 -587 356 -767 518 -51 46 -120 98 -153 117 -93 52 -145 90 -145 105 0 12
4 12 28 1 15 -8 61 -29 102 -49z m-644 38 c3 -8 34 -35 69 -59 68 -49 98 -88
46 -62 -37 19 -151 115 -151 127 0 15 30 10 36 -6z m454 -105 c32 -16 62 -36
67 -43 4 -8 32 -31 62 -52 43 -31 51 -34 42 -17 -13 25 -12 26 23 12 21 -7 26
-6 26 5 0 8 -9 15 -20 15 -11 0 -20 4 -20 9 0 5 -3 16 -6 25 -10 27 25 19 70
-16 22 -18 91 -74 151 -124 170 -141 411 -300 743 -491 216 -124 559 -293 665
-328 l83 -27 -4 -36 c-6 -61 -10 -67 -31 -48 -18 16 -123 41 -144 33 -7 -2 15
-9 48 -16 66 -13 87 -22 93 -39 2 -8 -10 -12 -35 -12 -21 0 -47 -7 -57 -15
-30 -23 -74 -18 -141 15 -33 17 -112 53 -175 80 -342 150 -674 378 -1220 840
-102 86 -205 170 -230 185 -62 40 -80 56 -74 66 8 14 21 11 84 -21z m-33 -68
c17 -9 66 -48 109 -87 42 -38 100 -91 128 -116 61 -55 317 -253 488 -377 322
-233 648 -431 791 -482 74 -26 85 -46 42 -74 -47 -31 -120 -41 -188 -27 -94
19 -262 78 -363 127 -273 132 -796 537 -1106 856 -85 87 -102 109 -80 103 42
-10 66 -29 132 -105 71 -84 128 -135 241 -220 46 -34 92 -72 102 -83 21 -24
36 -15 16 9 -8 10 -38 34 -66 56 -29 21 -87 73 -130 114 -42 42 -94 87 -115
102 -26 17 -37 30 -33 40 3 10 -9 30 -32 54 -68 70 -24 52 51 -20 41 -40 79
-72 86 -72 10 0 10 3 1 14 -9 10 -9 16 -1 21 6 4 8 15 5 25 -5 15 -2 17 17 13
20 -4 18 1 -15 31 -20 20 -51 39 -67 43 -17 3 -30 12 -30 19 0 8 -9 14 -20 14
-25 0 -48 39 -30 50 7 5 18 4 24 -1 6 -6 25 -18 43 -27z m-10763 -77 c-35
-112 -30 -210 20 -359 20 -60 35 -110 34 -111 -2 -1 -32 7 -67 19 -59 19 -66
24 -79 61 -23 63 -18 178 11 267 23 71 94 214 102 206 2 -2 -7 -40 -21 -83z
m1821 -88 c14 -37 25 -70 25 -72 0 -3 -21 -5 -47 -5 -37 0 -62 -9 -125 -46
-44 -25 -81 -44 -83 -42 -7 8 27 113 46 139 28 40 77 75 119 87 19 5 36 8 37
7 1 0 14 -31 28 -68z m8796 -107 c28 -38 52 -61 57 -55 3 3 -5 16 -17 29 -12
13 -21 33 -19 43 2 11 -4 28 -12 38 -13 15 -13 17 2 14 25 -6 238 -198 238
-215 0 -8 6 -14 13 -14 22 0 38 -22 26 -36 -8 -10 -2 -14 25 -19 23 -5 82 -42
168 -108 395 -299 460 -347 541 -396 105 -63 256 -135 317 -150 70 -18 100
-32 100 -47 0 -8 -9 -14 -21 -14 -11 0 -35 -11 -53 -25 -18 -13 -56 -30 -84
-37 -73 -16 -129 3 -294 103 -239 145 -492 339 -699 537 -162 155 -411 421
-404 432 8 12 89 -43 116 -80z m-10192 -253 c24 -70 86 -164 137 -207 l30 -25
-86 3 c-104 4 -123 16 -158 90 -23 50 -27 70 -27 157 0 102 8 137 49 205 l21
35 6 -95 c3 -58 14 -121 28 -163z m9958 216 c17 -43 28 -53 60 -53 16 0 38
-20 72 -62 28 -35 141 -151 253 -259 404 -390 578 -618 578 -760 0 -115 -58
-239 -112 -239 -34 0 -42 9 -62 75 -30 96 -109 253 -177 348 -34 48 -141 169
-237 270 -185 193 -287 315 -335 397 -23 40 -26 50 -13 50 22 0 20 13 -4 28
-22 14 -110 141 -110 159 0 7 7 10 17 6 12 -5 15 -2 10 10 -12 33 18 16 46
-24 16 -23 31 -39 34 -36 3 3 -11 27 -31 53 -39 50 -45 74 -20 74 8 0 22 -17
31 -37z m-161 -55 c10 -38 11 -47 13 -70 1 -9 16 -21 36 -28 44 -14 101 -81
246 -285 89 -127 149 -197 289 -340 168 -172 178 -185 232 -290 100 -196 111
-229 114 -335 2 -75 -1 -104 -16 -137 -21 -47 -82 -97 -142 -115 -34 -10 -42
-9 -66 9 -15 11 -54 71 -87 134 -34 63 -129 227 -212 364 -212 352 -353 622
-353 677 0 14 -8 27 -22 33 -27 13 -79 105 -80 144 -1 17 -6 27 -12 25 -6 -2
-26 25 -44 61 -30 61 -30 65 -12 65 13 0 25 -12 35 -35 14 -35 15 -36 39 -20
24 16 24 18 10 57 -18 51 -18 58 1 58 11 0 12 5 5 26 -13 33 -13 34 4 34 8 0
18 -15 22 -32z m436 -66 c24 -21 105 -98 179 -173 128 -129 438 -388 507 -423
19 -10 32 -24 32 -36 0 -11 12 -25 27 -32 15 -8 30 -25 34 -42 5 -16 20 -42
35 -57 20 -21 23 -29 12 -29 -8 0 -23 9 -33 20 -18 20 -45 27 -45 13 0 -5 7
-17 15 -27 19 -25 19 -36 1 -36 -7 0 -19 14 -26 30 -10 23 -19 30 -40 30 -19
0 -36 9 -49 26 -17 21 -24 24 -35 15 -11 -9 -22 -1 -57 41 -24 29 -160 171
-302 316 -221 224 -258 266 -255 287 3 13 1 22 -3 19 -13 -7 -66 23 -83 48
-24 33 -19 43 10 23 25 -16 26 -16 19 4 -10 31 8 26 57 -17z m-9890 -114 c7
-109 62 -204 162 -279 73 -55 57 -66 -34 -23 -30 14 -75 31 -99 38 -62 16 -84
49 -89 136 -3 52 1 84 18 134 12 36 25 66 30 66 4 0 10 -33 12 -72z m9134
-175 c-16 -17 -52 83 -61 171 -4 46 -1 40 32 -56 20 -59 34 -111 29 -115z m26
128 c11 -29 28 -51 39 -54 14 -4 19 -14 19 -37 0 -17 4 -29 9 -26 5 3 11 -7
14 -22 3 -16 54 -138 113 -273 180 -413 238 -567 293 -780 60 -232 88 -552 57
-645 -23 -71 -84 -129 -135 -129 -57 0 -71 17 -71 84 0 76 -25 275 -50 397
-28 138 -84 340 -211 762 -129 431 -176 609 -162 623 6 6 16 -13 28 -56 9 -36
22 -65 27 -65 6 0 8 9 4 20 -3 11 -9 29 -12 40 -6 20 3 26 21 12 6 -4 23 -28
38 -54 15 -27 32 -48 37 -48 12 0 2 27 -22 62 -21 30 -23 45 -6 50 18 6 -10
68 -31 68 -13 0 -16 7 -13 33 2 22 -2 38 -12 46 -18 15 -21 41 -5 41 5 0 19
-22 31 -49z m112 24 c3 -8 14 -15 24 -15 23 0 36 -14 49 -55 5 -16 20 -35 32
-41 18 -9 19 -13 7 -17 -25 -10 -19 -27 9 -27 41 0 140 -162 339 -557 47 -94
158 -291 246 -437 151 -250 160 -268 160 -316 0 -89 -42 -144 -227 -291 -77
-61 -126 -80 -149 -57 -9 8 -17 61 -24 153 -29 388 -102 652 -303 1105 -101
227 -179 423 -192 478 -4 21 -2 38 5 47 7 8 10 22 6 30 -3 8 -1 15 3 15 5 0
11 -7 15 -15z m-8567 -175 c39 -86 44 -91 109 -132 l68 -43 -32 -9 c-42 -12
-131 8 -168 36 -32 26 -54 75 -54 124 0 39 19 114 29 114 3 0 25 -40 48 -90z
m3633 -50 c91 -6 251 -19 355 -30 105 -11 294 -29 420 -40 521 -47 772 -103
1028 -231 101 -50 180 -99 161 -99 -6 0 -44 12 -85 26 -251 86 -843 197 -1289
240 -247 25 -693 25 -809 1 -111 -23 -141 -22 -195 7 -25 13 -82 32 -126 42
-44 9 -80 20 -80 24 0 4 24 14 53 23 69 22 187 36 367 45 19 1 109 -3 200 -8z
m4541 -178 c-17 -135 -22 -162 -32 -162 -18 0 1 175 28 265 13 43 15 -10 4
-103z m134 77 c4 -17 13 -33 20 -36 8 -2 11 -11 8 -19 -3 -9 1 -14 11 -14 13
0 16 -8 14 -32 -2 -18 2 -34 7 -36 17 -4 17 43 1 82 -15 35 -8 48 12 24 5 -7
22 -56 37 -108 14 -52 63 -212 107 -355 155 -507 182 -626 245 -1113 4 -30 1
-48 -9 -60 -8 -9 -26 -42 -40 -73 -34 -76 -99 -119 -179 -119 -49 0 -82 30
-98 86 -17 59 -29 207 -46 569 -17 364 -36 617 -64 830 -10 77 -14 145 -10
151 5 6 0 32 -10 60 -25 64 -45 169 -37 189 8 23 23 10 31 -26z m-179 -99
c-25 -92 -30 -189 -12 -232 18 -43 19 -57 6 -78 -8 -13 -11 -12 -25 5 -15 19
-16 15 -11 -60 7 -103 -3 -147 -108 -460 -97 -287 -126 -414 -191 -825 -87
-551 -124 -668 -221 -686 -38 -7 -117 24 -132 53 -6 12 -3 52 9 123 9 58 32
215 49 350 51 403 86 584 146 752 15 40 77 180 140 310 63 130 114 239 114
241 0 18 63 167 71 167 5 0 9 -20 9 -45 0 -72 17 -52 23 28 8 92 88 376 111
389 9 5 16 19 16 31 0 12 4 33 8 47 15 53 14 -53 -2 -110z m3453 105 c10 -10
-39 -45 -63 -45 -13 0 -28 12 -39 31 l-18 32 57 -6 c31 -3 59 -9 63 -12z
m-8494 -31 c111 -29 235 -104 235 -143 0 -12 17 -23 53 -36 29 -10 66 -33 85
-53 18 -19 61 -55 95 -80 120 -88 290 -252 275 -267 -2 -2 -40 25 -83 61 -183
150 -483 328 -667 396 -140 51 -315 49 -428 -5 l-45 -22 -6 -80 c-8 -104 -32
-163 -111 -277 -114 -163 -109 -149 -343 -968 -68 -239 -137 -473 -154 -520
-27 -79 -30 -82 -30 -45 -1 48 23 212 45 310 27 122 81 307 169 576 86 261 90
280 125 553 14 111 51 228 90 288 58 88 267 270 350 306 82 34 225 37 345 6z
m5194 -185 c43 -295 75 -654 91 -1029 12 -292 23 -420 45 -539 11 -63 12 -93
5 -123 -20 -74 -110 -151 -218 -187 -75 -26 -112 -27 -112 -5 0 9 23 125 50
257 l50 240 15 471 c23 731 39 1065 51 1053 2 -2 12 -64 23 -138z m-69 29 c0
-237 -21 -1024 -30 -1158 -26 -359 -96 -716 -165 -836 -44 -75 -173 -154 -229
-140 -41 10 -58 35 -53 75 23 182 103 697 123 796 28 140 72 293 169 595 104
324 138 469 150 655 7 104 10 115 26 115 5 0 9 -45 9 -102z m-3728 32 c280
-57 651 -167 724 -215 33 -21 30 -41 -8 -54 -71 -23 -97 -17 -333 76 -239 95
-455 168 -587 198 -42 10 -75 22 -72 27 10 16 80 8 276 -32z m-44 -75 c186
-60 542 -191 555 -204 21 -21 -6 -26 -114 -23 -150 4 -192 12 -204 39 -12 29
-82 60 -314 138 -205 69 -291 107 -291 129 0 19 189 -21 368 -79z m550 39
c341 -67 553 -129 572 -165 9 -16 7 -21 -15 -29 -68 -26 -180 -6 -349 62 -56
22 -207 71 -336 109 l-235 69 95 -6 c52 -3 173 -21 268 -40z m-655 -110 c127
-48 234 -88 236 -90 30 -28 -207 -17 -289 12 -76 28 -314 136 -330 151 -12 11
-2 13 68 13 78 0 92 -4 315 -86z m3631 -63 c-15 -36 -32 -70 -37 -76 -18 -19
1 63 30 127 22 51 29 58 31 39 2 -13 -9 -54 -24 -90z m-3784 1 c49 -24 55 -31
55 -57 0 -35 -25 -43 -80 -25 -51 17 -187 108 -179 121 21 35 71 25 204 -39z
m-155 -45 c104 -52 140 -85 130 -117 -10 -33 -65 -52 -107 -38 -48 16 -155 86
-178 116 -11 14 -30 30 -42 36 -12 6 -23 17 -26 25 -3 10 3 12 26 6 25 -5 31
-3 37 15 4 12 2 27 -4 33 -26 26 -7 26 32 -1 23 -16 83 -50 132 -75z m-617 6
c40 -30 126 -136 219 -271 37 -53 73 -101 79 -107 21 -17 46 -116 33 -132 -17
-20 -29 -16 -29 10 0 13 -22 55 -49 93 -67 95 -253 298 -308 335 -36 25 -44
36 -39 53 3 11 6 29 6 40 0 15 5 17 28 11 15 -3 42 -18 60 -32z m373 -20 c8
-9 46 -37 84 -61 97 -62 125 -90 125 -124 0 -24 -4 -28 -28 -28 -16 0 -45 12
-65 28 -51 38 -179 181 -172 193 10 15 41 10 56 -8z m-190 -64 c131 -88 207
-155 250 -223 43 -66 45 -93 8 -131 -19 -19 -19 -19 -77 41 -56 57 -292 363
-292 378 0 9 4 7 111 -65z m-304 23 c92 -74 297 -295 330 -358 35 -65 56 -141
42 -149 -24 -15 -73 32 -140 133 -52 80 -100 135 -186 217 -101 97 -116 115
-123 153 -6 36 -5 42 10 42 10 0 40 -17 67 -38z m-160 -137 c7 -21 11 -40 10
-42 -4 -4 -127 176 -127 185 1 20 107 -109 117 -143z m-167 29 c66 -63 82 -84
61 -84 -18 0 -167 149 -149 150 10 0 49 -30 88 -66z m4784 -26 c-14 -58 -19
-95 -13 -99 5 -3 7 -13 3 -22 -3 -9 -2 -17 4 -17 5 0 12 23 15 51 4 28 11 57
18 65 6 7 8 18 4 24 -3 5 0 10 8 10 25 0 26 -23 5 -84 -16 -47 -18 -63 -9 -83
10 -21 7 -33 -16 -78 -14 -30 -30 -52 -33 -50 -4 2 -14 -23 -24 -56 -9 -33
-36 -99 -60 -147 -78 -155 -108 -285 -160 -698 -47 -366 -71 -487 -132 -646
-28 -75 -63 -111 -124 -129 -79 -24 -85 10 -41 226 28 137 40 228 61 490 26
315 71 488 197 745 41 85 86 179 100 208 23 49 26 52 39 35 9 -12 13 -13 14
-5 0 7 11 28 24 45 13 18 40 84 61 147 38 116 58 160 74 160 5 0 -2 -41 -15
-92z m-4412 -56 c52 -55 107 -115 122 -134 39 -53 126 -199 126 -215 0 -7 -11
-13 -24 -13 -20 0 -52 39 -190 235 -91 129 -166 237 -166 240 0 16 46 -24 132
-113z m-349 -31 c135 -107 217 -230 217 -325 l0 -49 -26 24 c-14 13 -47 53
-72 89 -25 36 -67 88 -94 117 -50 53 -56 71 -36 91 9 9 0 22 -38 54 -26 24
-62 56 -79 71 l-30 28 41 -20 c23 -11 75 -47 117 -80z m229 34 c1 -5 13 -18
29 -27 53 -33 233 -277 216 -294 -2 -3 -28 28 -57 68 -29 40 -90 109 -136 154
-78 75 -106 120 -68 112 8 -2 15 -7 16 -13z m-342 -106 c56 -25 212 -183 259
-262 42 -71 53 -140 24 -155 -40 -22 -95 33 -224 220 -40 58 -47 74 -34 78 13
4 10 11 -15 35 -16 16 -30 37 -30 47 0 10 -11 24 -25 30 -26 12 -34 28 -12 28
6 0 32 -10 57 -21z m433 -68 c65 -67 106 -135 107 -175 0 -19 0 -19 -21 0 -29
26 -169 219 -169 233 0 22 18 10 83 -58z m-1080 -21 c-1 -54 -37 -140 -56
-140 -25 0 -169 -50 -234 -81 -91 -43 -151 -95 -267 -232 -58 -67 -122 -136
-143 -153 -50 -39 -90 -64 -103 -64 -5 0 32 57 83 128 57 77 114 169 145 235
63 133 130 208 235 263 103 54 231 94 292 91 l50 -2 -2 -45z m587 -154 c117
-195 151 -274 176 -403 20 -105 18 -130 -11 -158 -13 -14 -28 -25 -33 -25 -5
0 -13 24 -16 53 -14 102 -49 215 -136 437 -85 218 -118 313 -101 294 4 -5 59
-94 121 -198z m-161 40 c17 -9 33 -27 37 -41 3 -14 12 -25 20 -25 22 0 43 -41
96 -183 62 -166 98 -304 98 -373 0 -58 -29 -147 -61 -188 -37 -47 -46 -35 -53
82 -13 196 -55 362 -167 663 -73 197 -90 272 -34 152 24 -52 41 -76 64 -87z
m315 -96 c95 -123 126 -185 126 -249 0 -39 -6 -56 -26 -81 -33 -38 -34 -36
-70 80 -31 100 -56 152 -136 279 -63 99 -93 155 -108 199 -13 37 119 -103 214
-228z m4586 225 c0 -7 -6 -18 -14 -22 -7 -4 -19 -26 -26 -48 -7 -22 -41 -94
-75 -160 -130 -248 -167 -397 -210 -850 -29 -300 -53 -448 -95 -578 -40 -126
-94 -177 -185 -177 -80 0 -85 100 -14 299 61 172 74 221 124 469 81 395 135
583 216 743 28 57 43 77 54 73 8 -4 15 -1 15 5 0 6 7 11 15 11 13 0 12 -7 -5
-41 -12 -22 -19 -46 -16 -52 2 -7 8 -1 12 13 18 59 144 299 165 314 29 20 39
20 39 1z m-4269 -68 c45 -53 69 -99 69 -132 0 -38 -13 -31 -54 30 -20 30 -43
55 -51 55 -11 0 -15 12 -15 45 0 25 4 45 8 45 4 0 24 -19 43 -43z m-761 -72
c12 -54 20 -69 38 -76 19 -7 22 -5 22 19 0 21 2 24 10 12 5 -8 7 -29 4 -45 -4
-23 0 -35 15 -50 25 -22 94 -229 116 -348 22 -120 44 -351 35 -361 -21 -22
-37 10 -68 140 -54 222 -80 309 -142 469 -64 166 -86 249 -76 290 11 43 30 23
46 -50z m4884 28 c-8 -21 -23 -55 -31 -76 -9 -21 -21 -36 -27 -34 -15 6 -12
15 30 85 41 71 52 79 28 25z m-493 -35 c-16 -29 -42 -84 -57 -123 -39 -99 -67
-140 -153 -225 -139 -138 -336 -253 -662 -389 -403 -167 -709 -327 -1034 -538
-161 -106 -217 -149 -378 -291 -195 -171 -210 -181 -452 -282 -121 -51 -224
-95 -230 -98 -5 -3 -1 5 10 17 11 12 49 39 85 59 44 24 93 65 150 126 203 215
298 295 564 471 366 242 731 432 1091 565 381 142 510 218 660 391 33 38 143
137 245 219 102 82 186 149 188 149 1 1 -11 -23 -27 -51z m-4487 -243 c14 -88
46 -234 70 -325 81 -306 81 -305 80 -525 -1 -143 -5 -211 -15 -239 -14 -39
-42 -66 -55 -53 -11 11 -42 180 -90 502 -65 436 -67 453 -53 580 7 61 13 139
14 175 3 125 13 102 49 -115z m49 113 c4 -28 12 -55 18 -59 38 -23 190 -529
220 -731 18 -124 -6 -188 -69 -188 l-29 0 -7 113 c-8 136 -21 205 -85 446 -83
310 -104 471 -61 471 4 0 10 -23 13 -52z m4687 -94 c-28 -76 -49 -143 -47
-149 5 -13 45 76 60 133 6 23 15 42 19 42 19 0 4 -77 -47 -240 -67 -213 -92
-308 -144 -555 -52 -250 -83 -369 -127 -496 -21 -57 -47 -131 -59 -164 l-21
-60 -58 -5 c-64 -6 -68 -5 -86 29 -23 45 9 159 152 530 64 166 106 296 144
445 30 116 54 212 54 213 0 2 11 3 24 3 14 0 28 5 31 10 3 6 -3 10 -14 10 -22
0 -28 14 -11 25 16 10 45 72 85 185 32 92 84 195 92 186 2 -2 -19 -65 -47
-142z m-4844 -106 c1 -214 15 -316 105 -775 66 -336 74 -414 44 -459 -17 -27
-19 -27 -26 -9 -5 11 -27 70 -50 130 -23 61 -57 151 -77 200 -64 165 -76 248
-76 525 -1 243 -1 246 32 385 18 77 35 150 38 163 2 12 5 22 7 22 1 0 2 -82 3
-182z m4770 65 c-4 -16 -30 -75 -58 -133 -64 -132 -70 -151 -118 -340 -21 -85
-66 -234 -99 -330 -104 -306 -212 -605 -222 -615 -12 -12 -11 17 1 70 13 58
-2 66 -45 25 -39 -37 -42 -35 -21 14 12 29 12 34 -4 44 -15 9 -19 7 -25 -15
-5 -20 -9 -23 -18 -14 -8 8 -7 18 6 40 18 32 22 67 8 75 -7 5 -34 -51 -55
-116 -3 -10 -10 -18 -16 -18 -15 0 -1 115 26 200 31 99 79 190 204 389 113
181 153 261 196 394 29 90 51 117 39 47 -9 -51 9 -53 25 -2 14 45 79 175 127
255 37 61 59 75 49 30z m-5195 -151 c-20 -81 -107 -243 -173 -322 -119 -143
-217 -231 -333 -300 -61 -35 -184 -111 -275 -169 -178 -113 -230 -137 -315
-147 -48 -6 -55 -5 -50 9 11 27 117 93 311 191 205 104 308 174 488 335 142
126 223 221 251 298 10 28 14 32 14 16 2 -40 16 -25 40 45 13 37 28 78 34 92
15 39 21 5 8 -48z m-121 -41 c0 -6 -4 -13 -10 -16 -5 -3 -10 -19 -10 -34 0
-17 -11 -38 -30 -56 -23 -22 -29 -36 -25 -52 4 -17 -7 -32 -57 -75 -34 -29
-113 -101 -175 -160 -144 -136 -203 -174 -465 -307 -117 -59 -250 -132 -294
-163 -88 -60 -138 -75 -219 -62 -92 13 -85 19 290 207 335 169 467 246 620
362 123 92 263 233 284 283 8 20 20 32 32 32 11 0 19 6 19 13 0 14 20 37 32
37 4 0 8 -4 8 -9z m434 -252 c7 -308 28 -414 130 -674 64 -161 102 -292 93
-317 -8 -23 -90 73 -134 157 -114 223 -216 583 -198 704 4 25 22 93 40 151 19
58 39 125 45 149 6 23 13 41 15 39 3 -2 7 -96 9 -209z m-699 137 c-37 -49
-149 -131 -285 -211 -63 -37 -205 -121 -315 -187 -233 -140 -391 -218 -565
-281 -154 -55 -259 -79 -331 -75 l-54 3 75 39 c41 21 155 67 255 103 242 86
372 152 536 271 165 118 218 147 389 212 155 59 210 87 270 139 52 45 64 38
25 -13z m135 30 c0 -37 -360 -329 -563 -456 -137 -87 -472 -255 -633 -318
-116 -46 -141 -52 -205 -52 l-72 0 19 21 c27 30 46 38 254 114 249 91 330 131
565 275 306 188 394 248 470 320 39 37 83 76 99 88 33 25 66 29 66 8z m234
-58 c-39 -122 -124 -247 -262 -390 -129 -133 -263 -222 -434 -288 -70 -27
-168 -50 -168 -40 0 25 201 157 280 185 68 24 203 119 301 212 102 98 191 211
251 321 46 82 60 82 32 0z m76 -81 c-24 -114 -125 -281 -245 -404 -52 -54 -87
-67 -113 -41 -21 21 -13 38 47 106 95 107 228 290 274 377 40 77 42 79 45 47
2 -18 -2 -57 -8 -85z m0 -181 c-6 -29 -26 -85 -44 -123 -56 -117 -196 -247
-229 -214 -16 16 4 47 87 138 69 76 166 217 166 241 0 6 6 24 13 39 l12 28 3
-28 c2 -15 -2 -51 -8 -81z m4611 45 c-6 -10 -17 -24 -26 -31 -9 -7 -52 -84
-95 -171 -43 -87 -97 -186 -119 -220 -42 -65 -52 -91 -26 -69 13 11 15 8 15
-13 0 -29 -33 -46 -54 -28 -10 9 -15 7 -19 -9 -4 -16 0 -20 19 -20 14 0 24 -6
24 -14 0 -28 -163 -242 -253 -334 -101 -103 -213 -197 -282 -238 -44 -25 -171
-65 -247 -77 -55 -8 -49 12 20 60 90 64 207 179 392 383 94 104 193 205 220
224 29 21 50 44 52 58 2 14 12 24 27 28 16 4 28 19 40 51 22 57 58 109 150
219 39 47 71 95 71 107 0 26 77 126 90 118 7 -4 7 -13 1 -24z m-381 9 c0 -5
-37 -40 -82 -78 -46 -38 -92 -80 -103 -92 -31 -36 -261 -239 -465 -411 -102
-86 -275 -239 -385 -339 -367 -334 -540 -456 -680 -476 -21 -3 -9 6 40 30 67
33 69 35 35 36 l-35 1 34 28 34 28 -33 -5 c-30 -4 -21 6 86 95 65 55 211 185
324 289 472 434 580 520 854 679 54 31 132 88 172 125 75 70 111 91 123 71 5
-7 17 -4 36 9 34 21 45 24 45 10z m66 -8 c-2 -4 -43 -55 -90 -112 -47 -57 -83
-106 -80 -109 3 -3 20 10 37 30 117 130 130 143 135 131 2 -8 -9 -28 -25 -45
-16 -18 -37 -45 -47 -60 -26 -43 -180 -218 -322 -367 -112 -117 -119 -126 -49
-64 87 78 219 213 304 312 30 34 56 60 59 58 6 -7 -48 -167 -67 -195 -13 -20
-13 -23 -1 -19 8 2 22 27 31 54 10 30 36 70 66 104 34 37 52 68 57 93 5 28 25
56 73 107 36 39 69 70 74 70 17 0 9 -22 -15 -41 -38 -30 -113 -124 -93 -116
20 7 18 3 -16 -47 -19 -27 -19 -29 -3 -38 16 -9 16 -12 -6 -35 -12 -14 -33
-29 -45 -34 -26 -10 -31 -36 -7 -41 12 -2 -2 -27 -56 -98 -196 -256 -379 -458
-545 -599 -131 -112 -141 -118 -218 -135 -17 -4 -31 -16 -37 -31 -5 -13 -22
-31 -37 -38 -40 -21 -259 -69 -297 -65 l-31 3 30 28 c17 16 90 73 162 128 127
95 343 291 343 311 0 6 -35 -23 -77 -62 -126 -118 -245 -216 -360 -296 -141
-99 -159 -108 -218 -110 -27 -1 -81 -5 -119 -9 -55 -6 -68 -5 -64 5 3 10 1545
1338 1556 1339 2 1 1 -3 -2 -7z m-305 -46 c-16 -19 -119 -79 -278 -161 -73
-38 -163 -92 -200 -122 -150 -117 -574 -434 -663 -495 -200 -138 -550 -328
-637 -347 -59 -12 -45 4 32 39 35 16 86 44 114 63 28 20 73 43 101 52 57 19
68 30 43 43 -14 8 -5 17 53 54 40 26 91 72 122 109 75 89 190 183 372 304 242
160 514 305 730 389 52 20 122 50 154 66 60 30 79 32 57 6z m-3857 -138 c3
-18 8 -55 11 -82 19 -143 177 -511 263 -611 59 -68 75 -108 70 -180 -5 -82
-25 -72 -115 62 -212 315 -293 495 -293 654 0 59 34 189 50 189 5 0 11 -15 14
-32z m3668 -27 c-18 -15 -65 -46 -105 -67 -134 -73 -341 -242 -682 -559 -99
-92 -216 -201 -261 -241 -85 -77 -148 -109 -196 -100 -18 4 -30 0 -35 -9 -10
-17 -135 -75 -163 -75 -38 0 -20 16 45 40 105 39 66 35 -71 -9 -71 -22 -130
-38 -132 -36 -8 7 63 45 123 65 45 15 64 28 77 49 12 22 46 45 129 85 63 31
120 56 127 56 12 0 12 3 2 14 -10 12 -1 20 52 47 93 47 210 130 423 300 255
203 366 287 466 352 154 100 278 154 201 88z m-3834 -76 c-7 -79 -55 -137
-125 -151 -30 -6 -33 -4 -33 18 0 15 16 40 46 68 25 25 57 62 70 83 35 53 47
48 42 -18z m12 -161 l0 -55 -42 3 c-23 2 -43 8 -45 14 -4 12 64 94 78 94 5 0
9 -25 9 -56z m4500 -23 c-16 -38 -43 -120 -60 -182 -37 -135 -59 -187 -101
-240 -40 -51 -175 -140 -269 -178 -84 -33 -160 -53 -160 -41 0 4 19 20 43 35
148 98 214 172 390 435 121 182 164 240 177 240 5 0 -4 -31 -20 -69z m-4394
-83 c19 -77 57 -147 171 -318 188 -282 202 -313 213 -480 11 -163 -7 -187 -79
-103 -79 93 -183 304 -260 528 -68 195 -84 272 -82 378 1 61 20 59 37 -5z"/>
<path d="M3246 8197 c-29 -30 -34 -32 -81 -26 -108 13 -206 -19 -259 -85 -29
-36 -31 -43 -31 -124 0 -75 4 -95 29 -145 52 -107 167 -163 284 -139 125 26
185 108 185 252 0 69 -4 84 -32 134 -22 37 -41 58 -57 62 -35 9 -29 45 9 58
37 13 70 -5 114 -62 35 -47 83 -181 84 -240 0 -20 7 -55 14 -77 14 -38 14 -35
11 65 -5 164 -53 273 -145 332 -59 37 -86 36 -125 -5z m-38 -83 c12 -8 22 -22
22 -31 0 -8 11 -26 25 -39 22 -20 25 -32 25 -86 0 -68 -23 -130 -57 -161 -36
-31 -73 -36 -146 -17 -104 26 -167 95 -167 183 0 48 26 96 72 130 59 44 172
54 226 21z"/>
<path d="M2779 7899 c-31 -31 -23 -123 14 -172 27 -36 134 -97 169 -97 11 0
53 -15 94 -34 57 -27 74 -31 74 -20 0 15 -18 24 -165 85 -45 19 -97 49 -120
70 -36 34 -39 41 -40 90 0 44 4 55 21 64 11 5 19 16 16 23 -6 19 -40 14 -63
-9z"/>
<path d="M3815 7830 c5 -49 12 -122 32 -326 7 -73 -7 -122 -49 -170 -33 -37
-146 -111 -222 -145 -47 -20 -54 -21 -139 -9 -102 14 -197 6 -197 -16 0 -16
10 -17 65 -4 28 6 69 5 137 -6 94 -15 98 -15 145 6 118 52 194 104 238 163 51
69 63 123 45 213 -6 33 -15 113 -19 180 -6 88 -13 128 -25 145 -16 23 -16 23
-11 -31z"/>
<path d="M3613 7749 c28 -117 12 -209 -46 -276 -63 -71 -131 -80 -375 -47 -46
6 -52 5 -46 -9 3 -9 22 -21 42 -27 47 -13 256 -13 303 0 81 23 169 139 169
223 0 46 -27 144 -42 153 -7 5 -9 -1 -5 -17z"/>
<path d="M4575 4599 c-94 -48 -145 -84 -145 -105 0 -20 16 -18 40 6 11 11 66
46 123 77 121 66 117 63 86 63 -14 0 -60 -18 -104 -41z"/>
</g>
</svg>
