<?xml version="1.0" standalone="no"?>
<!DOCTYPE svg PUBLIC "-//W3C//DTD SVG 20010904//EN"
 "http://www.w3.org/TR/2001/REC-SVG-20010904/DTD/svg10.dtd">
<svg version="1.0" xmlns="http://www.w3.org/2000/svg"
 width="1224.000000pt" height="792.000000pt" viewBox="0 0 1224.000000 792.000000"
 preserveAspectRatio="xMidYMid meet">

<g transform="translate(0.000000,792.000000) scale(0.100000,-0.100000)"
fill="#000000" stroke="none">
<path d="M11491 6586 c-12 -18 -41 -90 -65 -159 -25 -70 -57 -150 -73 -179
-66 -123 -221 -231 -352 -246 -36 -4 -66 -12 -68 -18 -2 -6 5 -21 15 -33 18
-24 76 -40 145 -41 20 0 37 -3 37 -7 0 -21 -63 -92 -114 -130 -159 -117 -392
-110 -530 17 -44 41 -45 41 -70 25 -29 -19 -35 -45 -11 -45 10 0 30 -31 54
-83 21 -46 46 -87 55 -90 23 -9 56 -67 56 -99 0 -16 -9 -34 -25 -46 -37 -29
-33 -67 15 -131 22 -29 40 -60 40 -70 -1 -9 -40 -176 -88 -371 l-88 -355 -58
-5 c-53 -5 -60 -9 -93 -48 -42 -50 -113 -89 -267 -144 -59 -21 -127 -50 -151
-63 -23 -14 -51 -25 -63 -25 -18 0 -22 -6 -22 -33 0 -19 2 -36 5 -39 4 -3 183
21 489 67 44 7 49 6 43 -9 -5 -13 6 -31 39 -63 45 -43 46 -46 42 -93 -6 -62
-41 -109 -116 -157 -75 -48 -102 -73 -102 -92 0 -8 21 -36 46 -62 40 -40 46
-52 51 -101 8 -80 -9 -119 -73 -175 -65 -55 -84 -87 -84 -143 0 -85 123 -349
290 -620 170 -278 229 -344 446 -496 151 -105 208 -137 234 -129 29 9 25 23
-15 46 -41 24 -164 162 -238 264 -68 96 -151 271 -178 380 -18 69 -23 118 -24
211 l0 120 40 65 c39 62 40 66 41 159 1 85 5 104 38 182 46 111 48 158 6 200
-29 29 -32 30 -117 27 l-87 -3 -8 29 c-14 54 13 186 92 442 l35 111 205 96
c113 53 210 96 215 96 6 0 26 -62 44 -137 25 -105 47 -169 94 -266 l61 -128
-18 -47 c-49 -126 -56 -155 -56 -214 0 -78 31 -149 84 -195 46 -42 76 -49 114
-29 17 9 33 16 36 16 11 0 36 -60 36 -84 0 -34 -50 -88 -120 -132 -32 -20 -61
-41 -63 -48 -10 -26 7 -68 44 -110 67 -76 90 -182 69 -320 -26 -172 -91 -316
-192 -422 -81 -85 -85 -110 -17 -101 59 8 140 66 254 181 209 213 456 583 584
876 67 155 78 198 61 240 -26 62 -69 60 -237 -11 -88 -37 -144 -48 -170 -31
-6 4 -15 41 -18 82 l-6 75 40 18 c23 11 52 33 65 50 59 78 24 154 -92 197 -97
36 -100 42 -132 255 -11 72 -38 197 -60 278 -22 82 -40 155 -40 163 0 7 12 16
28 20 112 25 142 44 142 88 0 33 12 40 120 71 102 30 195 73 299 138 56 36 67
48 92 104 16 34 29 65 29 68 0 14 -53 1 -115 -28 -129 -61 -293 -94 -522 -104
-140 -6 -142 -6 -137 15 3 11 -4 69 -15 129 -12 61 -21 134 -21 164 0 48 5 62
47 123 47 69 47 69 45 145 -2 75 -1 77 38 129 44 60 53 86 77 233 23 138 26
607 4 632 -21 26 -48 20 -70 -17z m-457 -1236 c-17 -59 -61 -110 -93 -110 -24
0 -27 -10 -9 -28 16 -16 51 -15 94 3 36 15 36 15 29 -8 -5 -12 -9 -107 -11
-211 l-3 -189 -137 -74 c-75 -40 -138 -72 -140 -71 -4 4 41 295 67 438 11 63
31 144 43 180 l22 64 74 32 c41 18 76 31 77 30 2 -1 -4 -27 -13 -56z"/>
<path d="M7974 6487 c-211 -160 -355 -330 -429 -506 -106 -251 -100 -351 22
-411 51 -24 53 -26 50 -65 -2 -39 -3 -40 -52 -51 -46 -9 -50 -12 -50 -39 0
-24 5 -31 33 -39 17 -5 32 -13 32 -18 0 -20 -50 -57 -91 -68 -105 -26 -114
-47 -40 -85 87 -44 112 -98 132 -284 20 -196 -11 -437 -71 -550 -28 -53 -38
-62 -79 -77 -103 -38 -105 -77 -4 -107 76 -23 134 -71 167 -140 14 -28 39
-117 56 -197 16 -80 35 -164 42 -187 13 -46 9 -58 -58 -170 -20 -33 -27 -64
-35 -155 -26 -290 31 -546 195 -884 151 -311 243 -455 280 -441 30 12 11 104
-28 136 -11 9 -13 17 -6 26 7 8 -7 45 -45 121 -70 140 -95 235 -95 370 0 129
13 192 55 269 18 33 35 72 39 86 5 23 21 33 111 70 58 24 104 48 102 54 -2 5
-32 14 -66 18 -81 10 -119 30 -137 72 -27 67 -9 120 55 156 72 40 72 103 0
139 -40 21 -41 23 -35 61 8 49 -5 75 -41 83 -66 16 -83 27 -83 57 0 16 14 55
30 86 41 76 39 104 -10 157 -23 24 -45 59 -51 78 -32 111 -62 643 -42 768 l9
55 40 -60 c56 -82 102 -176 110 -222 3 -21 -1 -80 -10 -131 -9 -50 -16 -112
-16 -137 0 -46 -1 -44 168 -290 41 -60 173 -329 232 -475 70 -171 100 -268
120 -388 11 -65 28 -127 39 -145 11 -18 67 -76 125 -130 57 -53 108 -106 111
-118 5 -14 14 -19 28 -17 31 4 33 59 6 156 -49 176 -50 181 -27 226 11 23 34
61 50 84 31 45 67 130 93 214 l14 47 -70 86 c-120 149 -129 176 -140 420 -5
105 -12 220 -15 258 -7 76 0 82 48 42 56 -47 157 -57 199 -19 36 32 24 50 -32
49 l-52 0 -17 50 c-10 28 -38 96 -64 153 -25 56 -46 117 -46 134 0 65 89 198
123 185 8 -3 18 -26 22 -52 4 -30 16 -57 30 -71 24 -24 59 -32 69 -15 11 18
37 286 31 316 -4 16 -10 122 -15 235 -8 190 -11 214 -43 330 -42 151 -110 328
-179 470 -43 88 -65 119 -133 188 -72 73 -115 100 -115 72 0 -5 16 -30 35 -56
29 -38 35 -54 35 -94 0 -46 13 -73 41 -82 22 -7 41 -115 46 -258 5 -154 4
-160 -53 -322 -32 -92 -28 -122 20 -142 84 -35 132 -192 90 -296 l-16 -40 -34
30 c-35 30 -77 39 -90 19 -4 -7 -6 -49 -5 -95 2 -80 1 -84 -19 -84 -30 0 -54
62 -75 190 -9 58 -20 121 -24 140 -14 72 -74 38 -86 -49 -9 -69 1 -154 35
-286 21 -83 30 -148 36 -265 11 -199 11 -340 1 -364 -7 -18 -12 -15 -53 25
-64 61 -112 165 -191 409 -36 113 -86 245 -110 295 -42 82 -45 93 -39 142 7
63 0 80 -60 137 -54 52 -57 85 -17 197 l27 76 -27 79 c-15 44 -27 87 -27 95 0
9 11 51 25 94 23 68 24 81 13 117 -11 39 -42 76 -102 126 -27 21 -28 26 -24
85 5 87 40 154 143 273 106 123 109 127 85 142 -16 10 -34 0 -126 -71z"/>
<path d="M6860 6470 c0 -13 21 -62 48 -109 l47 -86 0 -110 c-1 -127 -21 -194
-80 -262 -37 -44 -123 -93 -162 -93 -21 0 -23 -5 -23 -45 0 -37 3 -45 19 -45
10 0 24 -6 30 -14 29 -34 -84 -91 -135 -68 -34 16 -42 15 -48 -6 -4 -11 -43
-36 -94 -60 -78 -38 -95 -42 -162 -42 -101 0 -147 23 -198 99 -21 32 -44 79
-52 104 -16 60 -9 150 15 177 29 32 -4 24 -44 -10 -93 -79 -93 -133 -1 -455
25 -88 40 -161 40 -196 0 -101 15 -123 90 -131 25 -3 25 -3 28 -127 4 -180
-45 -517 -87 -601 -10 -19 -48 -58 -86 -87 -80 -61 -267 -160 -335 -178 -45
-12 -242 -136 -270 -170 -19 -22 -4 -45 28 -45 16 0 49 11 73 25 138 78 326
135 448 135 55 0 57 -2 37 -40 -13 -23 -12 -27 20 -62 24 -27 34 -47 34 -71 0
-62 -27 -146 -68 -214 -23 -37 -47 -91 -53 -120 -11 -48 -10 -59 16 -138 34
-100 29 -128 -25 -160 -56 -33 -115 -98 -128 -142 -18 -59 -15 -132 8 -207 28
-88 66 -130 157 -172 86 -39 126 -78 287 -279 141 -176 226 -254 330 -305 106
-52 236 -86 236 -62 0 14 -31 37 -120 90 -101 59 -150 118 -235 284 -143 277
-177 534 -75 569 37 13 40 44 10 119 -23 59 -25 101 -5 190 16 71 19 139 7
156 -15 23 -56 36 -128 41 l-74 6 0 37 c0 51 33 238 68 385 l29 119 54 17 c65
19 135 54 249 124 47 29 99 60 116 68 l32 16 11 -78 c19 -125 58 -259 96 -320
55 -90 55 -100 -4 -165 -44 -49 -51 -62 -51 -99 0 -63 18 -117 50 -149 23 -23
37 -28 75 -28 25 0 62 7 82 15 19 8 37 15 39 15 12 0 0 -44 -31 -105 -19 -38
-64 -153 -101 -255 -106 -294 -172 -410 -264 -461 -40 -23 -67 -66 -52 -81 49
-49 333 159 537 391 161 183 283 377 350 554 26 71 33 137 13 137 -6 0 -39
-29 -73 -65 -69 -72 -102 -82 -129 -43 -29 40 -21 75 23 103 38 23 61 67 61
115 0 53 -98 182 -167 219 -17 9 -23 24 -28 78 -8 92 -30 199 -54 269 -11 32
-18 61 -15 65 2 4 19 10 38 13 38 7 76 46 76 77 0 24 -28 38 -63 32 -20 -4
-27 -1 -27 10 0 25 180 71 331 83 l83 7 -42 38 c-68 60 -113 72 -306 78 l-170
6 -51 301 -51 302 43 41 c162 153 237 478 164 712 -24 76 -127 229 -166 247
-13 6 -33 29 -44 50 -11 21 -27 44 -35 51 -14 12 -16 10 -16 -9z m-214 -1282
c-5 -33 -20 -74 -43 -111 -19 -32 -33 -61 -30 -64 12 -12 57 8 103 47 62 51
75 52 63 3 -5 -21 -9 -105 -9 -188 0 -176 -8 -214 -55 -252 -85 -71 -301 -180
-320 -162 -6 6 150 688 160 698 12 12 120 79 129 80 5 1 5 -23 2 -51z"/>
<path d="M9255 6328 c-14 -189 -14 -191 78 -453 64 -182 99 -425 65 -453 -7
-5 -39 -13 -71 -16 -62 -8 -90 -27 -80 -54 3 -9 25 -42 48 -72 87 -116 101
-152 84 -231 -17 -77 -60 -119 -188 -180 -58 -28 -114 -58 -123 -66 -37 -33
-13 -83 39 -83 10 0 59 18 108 39 50 22 92 38 94 36 5 -6 -63 -96 -96 -126
-15 -15 -42 -30 -60 -34 -19 -4 -35 -14 -38 -26 -8 -24 13 -68 41 -86 20 -13
28 -9 110 58 77 61 150 109 169 109 3 0 5 -34 5 -75 0 -105 -25 -164 -110
-262 -39 -45 -70 -88 -70 -98 0 -9 23 -64 51 -121 l52 -103 -6 -128 c-9 -213
-47 -316 -158 -422 -44 -43 -68 -74 -64 -81 11 -18 70 -40 105 -40 47 0 97
-25 113 -57 56 -108 14 -396 -103 -708 -169 -453 -363 -724 -573 -800 l-58
-21 40 -13 c40 -12 51 -24 31 -36 -15 -9 -12 -35 5 -35 8 0 22 11 31 25 21 32
79 65 194 110 122 49 161 76 299 209 300 292 646 724 686 859 36 123 7 220
-90 295 l-55 42 6 68 c5 59 4 70 -15 94 -12 14 -34 29 -50 33 -16 3 -31 12
-34 19 -3 7 8 43 24 80 40 94 39 142 -5 195 -19 23 -40 58 -47 78 -18 54 -6
242 27 423 23 129 28 181 27 310 0 99 -6 180 -16 223 -15 67 -15 68 8 83 12 8
48 19 79 24 97 16 176 59 371 203 43 32 106 72 140 89 110 55 123 80 83 163
-20 41 -21 50 -10 90 18 66 16 75 -24 91 -53 22 -97 -2 -154 -88 -64 -95 -140
-171 -156 -155 -3 3 11 38 31 78 31 60 35 76 26 96 -23 49 -84 13 -194 -116
-51 -59 -94 -98 -138 -123 -34 -21 -64 -36 -66 -34 -7 7 18 199 28 218 6 11
32 50 59 87 61 85 66 100 42 153 -28 63 -66 103 -156 166 -114 79 -175 145
-220 236 -58 117 -77 187 -83 314 l-6 112 -37 0 -37 0 -8 -112z"/>
<path d="M2390 6364 c0 -9 13 -33 30 -54 16 -20 34 -50 41 -66 16 -43 14 -203
-5 -266 -24 -82 -47 -109 -132 -153 -90 -47 -109 -69 -80 -91 11 -8 39 -14 63
-14 32 0 43 -4 43 -15 0 -27 -48 -62 -117 -86 -52 -19 -73 -33 -102 -68 -86
-106 -123 -128 -190 -115 -107 22 -174 196 -91 239 32 16 42 55 15 55 -56 0
-126 -62 -145 -128 -18 -66 -12 -106 26 -178 109 -206 99 -177 85 -260 -17
-101 -12 -113 42 -103 23 4 44 8 47 9 3 0 -13 -163 -37 -362 -23 -200 -42
-371 -43 -381 0 -15 -46 -66 -303 -333 -47 -49 -58 -66 -52 -83 13 -40 91 -19
191 51 51 37 107 68 121 68 4 0 9 -61 11 -135 3 -149 3 -150 -82 -289 -20 -33
-36 -70 -36 -83 0 -13 21 -45 50 -78 28 -30 50 -64 50 -76 0 -49 -47 -103
-142 -163 -75 -47 -92 -81 -85 -160 11 -112 33 -162 102 -236 38 -40 78 -97
100 -141 57 -113 318 -425 463 -552 71 -63 182 -118 182 -91 0 3 -31 45 -68
93 -183 230 -282 426 -282 557 0 64 22 195 57 337 20 81 33 114 53 136 42 44
72 133 77 231 8 140 -22 191 -120 209 -27 5 -53 13 -59 19 -9 9 10 363 27 528
7 60 13 64 169 123 72 27 122 53 147 76 46 42 89 48 89 13 1 -31 30 -94 72
-154 66 -91 69 -104 66 -227 -3 -132 3 -146 79 -182 46 -22 53 -29 58 -63 4
-20 9 -49 11 -64 7 -38 -14 -178 -41 -272 -59 -205 -161 -401 -342 -659 -69
-98 -123 -180 -121 -182 12 -13 140 80 207 150 87 91 143 168 323 445 70 107
155 226 189 264 136 154 181 224 181 283 0 68 -72 108 -148 83 -61 -20 -70 16
-29 115 18 44 25 79 25 132 0 102 -7 115 -90 159 -43 23 -76 47 -85 64 -17 33
-45 179 -45 236 0 52 12 62 116 93 82 24 96 37 98 88 1 33 -2 37 -31 45 -18 5
-33 12 -33 16 1 6 47 43 198 160 15 11 15 14 2 23 -22 14 -62 4 -117 -30 -47
-29 -105 -43 -230 -56 l-62 -7 -25 84 c-45 151 -75 284 -96 423 -13 91 -26
149 -40 172 -11 19 -20 43 -20 54 0 11 21 61 48 111 l47 91 0 116 c0 92 -5
131 -22 186 -27 85 -83 175 -157 251 -30 32 -57 63 -60 70 -7 19 -36 17 -36
-2z m-110 -1113 c0 -16 -15 -50 -35 -79 -19 -28 -37 -62 -41 -76 -6 -24 -3
-26 23 -26 35 0 62 23 107 94 19 30 39 57 44 60 12 7 18 -46 33 -309 l11 -190
-47 -42 c-90 -82 -250 -175 -269 -156 -10 10 -7 280 4 416 16 189 58 301 124
327 37 15 46 11 46 -19z"/>
<path d="M1005 6042 c-16 -2 -64 -12 -106 -23 l-77 -21 -47 -94 c-35 -71 -49
-113 -56 -166 -12 -98 -13 -99 -64 -132 -45 -28 -85 -73 -100 -111 -4 -11 -11
-74 -15 -140 -9 -130 -18 -159 -81 -263 -54 -88 -355 -519 -388 -555 -23 -25
-26 -36 -24 -90 1 -34 15 -134 33 -222 40 -208 51 -320 39 -393 -16 -98 -12
-177 11 -203 15 -19 22 -21 28 -11 5 7 12 108 15 224 4 116 9 213 11 215 2 3
14 0 25 -7 39 -20 71 -88 105 -223 37 -146 64 -210 98 -228 13 -7 41 -9 74 -5
41 5 56 2 69 -10 30 -30 47 -78 66 -183 28 -156 41 -186 124 -291 41 -52 89
-122 105 -155 54 -109 74 -318 49 -515 -15 -123 -32 -182 -98 -339 -72 -169
-84 -207 -70 -233 9 -16 0 -30 -54 -87 -35 -38 -66 -78 -70 -90 -3 -11 -4 -21
-2 -21 13 0 138 96 167 128 61 67 149 220 303 527 234 464 256 559 162 677
-24 29 -49 68 -57 86 -7 19 -24 40 -37 49 -22 15 -32 53 -14 53 18 0 132 113
156 154 14 23 31 72 38 109 12 55 23 76 64 124 99 114 116 166 63 186 -33 13
-39 39 -16 72 23 34 27 73 20 193 l-7 117 -47 -141 c-43 -128 -54 -149 -124
-244 -42 -57 -82 -107 -89 -111 -6 -3 -65 -21 -130 -39 -87 -24 -121 -30 -129
-22 -7 7 -11 45 -10 99 1 48 -1 93 -5 100 -5 6 -34 19 -65 28 -57 16 -58 17
-58 52 0 95 -54 173 -164 237 -80 47 -88 57 -121 157 -30 88 -26 106 28 139
62 38 79 25 105 -76 15 -59 21 -70 44 -78 15 -5 31 -6 35 -2 12 12 6 84 -11
151 -25 92 -21 113 40 233 64 126 64 136 0 194 l-41 38 19 32 c38 66 99 138
122 144 63 16 106 -20 174 -145 50 -95 73 -116 131 -125 l42 -7 -7 -58 c-6
-55 -5 -58 19 -69 30 -14 29 -18 -16 -119 l-28 -63 32 0 c18 0 54 7 81 15 39
12 57 13 83 4 43 -14 56 -36 83 -136 18 -67 26 -83 41 -83 10 0 21 -1 24 -2 2
-2 7 83 10 187 5 145 2 220 -10 315 -25 194 -50 305 -83 363 -25 45 -38 57
-103 88 -70 35 -75 40 -124 120 -37 62 -59 88 -83 98 -62 28 -132 209 -132
341 0 155 102 243 229 199 72 -25 39 27 -37 59 -49 20 -115 30 -167 24z"/>
<path d="M3215 6016 c-56 -56 -105 -209 -105 -331 0 -84 7 -93 103 -140 57
-28 63 -34 79 -80 9 -27 17 -76 18 -107 l0 -57 -73 -34 c-71 -33 -117 -74
-117 -104 0 -8 13 -48 30 -89 36 -90 45 -144 65 -377 8 -98 33 -287 54 -420
55 -334 64 -426 59 -601 -3 -141 -6 -156 -31 -207 -30 -62 -66 -90 -155 -120
-77 -26 -126 -58 -130 -85 -4 -25 28 -34 114 -34 29 0 71 -7 93 -16 l39 -15 6
-122 c6 -109 20 -1191 20 -1470 l0 -108 25 3 c22 3 28 11 38 53 15 59 29 234
43 540 14 315 25 358 218 900 27 77 58 173 68 212 23 90 16 100 -74 113 -34 4
-66 11 -72 15 -21 13 -9 46 46 126 108 158 113 195 38 280 -49 55 -51 66 -28
111 30 59 15 130 -64 296 -39 81 -72 160 -74 177 -3 28 -1 30 72 52 134 41
234 55 366 51 75 -2 128 -7 135 -15 16 -16 -3 -69 -50 -134 -40 -57 -65 -116
-57 -140 2 -8 7 -27 11 -44 4 -18 28 -50 63 -82 l56 -52 -2 -89 c-2 -71 4
-109 27 -193 41 -147 45 -182 28 -216 -9 -16 -69 -79 -135 -141 -127 -119
-162 -169 -162 -236 0 -73 39 -122 134 -171 96 -49 269 -356 336 -598 37 -133
58 -169 87 -151 34 22 21 118 -41 311 -66 204 -81 306 -65 434 13 109 34 188
70 271 36 83 37 127 4 166 -29 35 -27 38 58 72 140 55 163 139 70 257 -25 32
-54 76 -64 99 -38 85 -49 361 -18 479 6 22 31 73 55 113 84 139 96 207 46 263
-39 43 -108 59 -292 66 -85 3 -161 9 -168 13 -9 4 18 30 82 78 105 79 104 77
85 174 -11 53 -9 60 37 199 36 105 61 163 96 214 53 78 67 133 48 189 -19 59
-66 60 -188 7 -53 -23 -93 -32 -186 -40 -124 -12 -146 -19 -180 -57 -18 -19
-195 -104 -218 -104 -5 0 -8 41 -8 91 l0 90 -57 25 c-166 72 -215 99 -228 124
-24 46 -28 99 -15 195 7 52 10 105 6 119 -8 33 -39 34 -71 2z m480 -892 c8 -4
22 -21 30 -40 18 -43 50 -51 116 -29 29 9 55 13 59 8 6 -7 30 -144 30 -173 0
-4 -15 -11 -32 -15 -18 -4 -101 -36 -184 -71 -83 -35 -155 -64 -161 -64 -13 0
-37 256 -28 302 7 39 37 73 70 81 31 7 81 8 100 1z"/>
<path d="M4440 5840 c0 -20 33 -75 126 -212 111 -162 134 -221 142 -362 4 -81
2 -104 -12 -130 -20 -38 -90 -87 -171 -120 -32 -13 -61 -29 -63 -36 -4 -12 26
-50 40 -50 23 0 108 -44 108 -56 0 -18 -14 -25 -73 -38 -28 -6 -52 -16 -54
-22 -2 -6 25 -33 60 -60 l65 -49 -5 -170 c-7 -291 -30 -398 -99 -450 -54 -42
-42 -95 21 -95 18 0 39 -8 48 -17 8 -10 26 -65 38 -123 21 -92 23 -133 24
-335 0 -273 -1 -277 -102 -327 -55 -27 -63 -35 -69 -65 -8 -42 0 -261 11 -286
7 -17 18 -18 106 -15 90 3 98 1 103 -17 7 -27 -8 -90 -44 -172 -46 -109 -42
-139 34 -286 70 -134 93 -202 160 -477 43 -177 105 -370 128 -397 6 -7 23 -13
39 -13 27 0 29 2 29 43 0 24 -11 81 -25 129 -14 47 -29 116 -35 154 -38 262
31 694 154 958 39 85 49 92 171 125 95 26 159 66 248 155 94 94 151 184 207
326 32 81 -18 60 -127 -55 -72 -75 -105 -92 -200 -101 -136 -13 -292 31 -348
98 -25 29 -26 36 -19 87 13 97 8 117 -51 198 -41 57 -62 99 -86 172 -77 239
-79 391 -5 399 51 6 71 -6 149 -97 81 -93 127 -175 127 -226 0 -16 4 -36 8
-42 13 -21 65 -26 87 -9 17 12 19 23 15 78 -16 232 -2 267 162 382 104 72 117
95 115 191 -2 72 1 85 26 128 17 28 60 73 105 110 100 81 132 112 132 130 0
23 -44 61 -111 97 -74 39 -197 153 -251 233 -86 126 -147 289 -166 442 -6 51
-10 60 -29 63 -18 3 -28 -8 -54 -52 -72 -130 -214 -200 -336 -167 -61 17 -92
48 -184 184 -133 197 -191 257 -249 257 -11 0 -20 -5 -20 -10z m719 -760 c21
-11 34 -40 57 -130 21 -85 41 -118 86 -141 35 -18 36 -20 28 -55 -9 -40 -49
-88 -95 -111 -16 -9 -63 -18 -105 -22 -72 -6 -75 -7 -78 -33 -4 -31 4 -34 111
-41 81 -6 107 -24 107 -74 0 -69 -52 -123 -133 -138 -36 -7 -39 -5 -89 50 -54
59 -93 85 -126 85 -17 0 -18 8 -15 108 6 185 7 187 58 206 49 19 49 19 85 165
34 135 55 160 109 131z"/>
</g>
</svg>
